<svg width="1280" height="24" viewBox="0 0 1280 24" fill="none" xmlns="http://www.w3.org/2000/svg">
<path d="M26.1599 10.8627H24.3567V16.9349H22.2734V10.8627H21.1259V9.85864L22.2734 9.29854V8.73845C22.2734 7.86871 22.4874 7.23348 22.9155 6.83277C23.3435 6.43205 24.0288 6.23169 24.9714 6.23169C25.6909 6.23169 26.3307 6.3387 26.8908 6.55272L26.358 8.08273C25.9391 7.95068 25.552 7.88465 25.1968 7.88465C24.9008 7.88465 24.6868 7.97344 24.5548 8.15103C24.4227 8.32407 24.3567 8.5472 24.3567 8.82041V9.29854H26.1599V10.8627Z" fill="#2F2E41"/>
<path d="M32.1889 16.9349L31.9088 15.9582H31.7996C31.5764 16.3134 31.26 16.5889 30.8501 16.7847C30.4403 16.9759 29.9736 17.0715 29.4499 17.0715C28.5528 17.0715 27.8766 16.8325 27.4213 16.3544C26.9659 15.8717 26.7382 15.1795 26.7382 14.2779V9.29854H28.8215V13.7588C28.8215 14.3098 28.9194 14.7242 29.1152 15.0019C29.311 15.2751 29.6229 15.4118 30.051 15.4118C30.6338 15.4118 31.055 15.2182 31.3146 14.8312C31.5742 14.4396 31.7039 13.7929 31.7039 12.8913V9.29854H33.7872V16.9349H32.1889Z" fill="#2F2E41"/>
<path d="M40.7178 14.6672C40.7178 15.4505 40.4446 16.047 39.8981 16.4568C39.3563 16.8666 38.5434 17.0715 37.4597 17.0715C36.9041 17.0715 36.4306 17.0328 36.039 16.9554C35.6474 16.8826 35.2808 16.7733 34.9393 16.6276V14.9063C35.3263 15.0885 35.7612 15.241 36.2439 15.3639C36.7311 15.4869 37.1591 15.5484 37.528 15.5484C38.2839 15.5484 38.6618 15.3298 38.6618 14.8926C38.6618 14.7287 38.6117 14.5967 38.5116 14.4965C38.4114 14.3917 38.2384 14.2756 37.9925 14.1481C37.7466 14.0161 37.4187 13.8635 37.0089 13.6905C36.4215 13.4446 35.9889 13.2169 35.7111 13.0075C35.4379 12.798 35.2375 12.5589 35.11 12.2903C34.9871 12.017 34.9256 11.6824 34.9256 11.2862C34.9256 10.6077 35.1874 10.084 35.7111 9.7152C36.2393 9.3418 36.9861 9.1551 37.9515 9.1551C38.8713 9.1551 39.7661 9.35546 40.6358 9.75618L40.0074 11.2589C39.6249 11.0949 39.2675 10.9606 38.9351 10.8559C38.6026 10.7511 38.2634 10.6988 37.9173 10.6988C37.3026 10.6988 36.9952 10.865 36.9952 11.1974C36.9952 11.3841 37.0931 11.5457 37.2889 11.6824C37.4893 11.819 37.9242 12.0216 38.5935 12.2903C39.1901 12.5316 39.6272 12.757 39.905 12.9665C40.1827 13.1759 40.3877 13.4173 40.5197 13.6905C40.6518 13.9637 40.7178 14.2893 40.7178 14.6672Z" fill="#2F2E41"/>
<path d="M44.923 10.6373C44.4813 10.6373 44.1353 10.7785 43.8848 11.0608C43.6344 11.3386 43.4909 11.7347 43.4545 12.2493H46.3779C46.3688 11.7347 46.2345 11.3386 45.9749 11.0608C45.7154 10.7785 45.3647 10.6373 44.923 10.6373ZM45.2168 17.0715C43.9873 17.0715 43.0265 16.7323 42.3343 16.0538C41.6422 15.3753 41.2961 14.4145 41.2961 13.1714C41.2961 11.8918 41.6149 10.9037 42.2524 10.207C42.8944 9.50573 43.7801 9.1551 44.9094 9.1551C45.9886 9.1551 46.8287 9.46247 47.4298 10.0772C48.0309 10.6919 48.3314 11.5412 48.3314 12.625V13.6359H43.4067C43.4295 14.2278 43.6048 14.69 43.9326 15.0224C44.2605 15.3548 44.7204 15.521 45.3124 15.521C45.7723 15.521 46.2072 15.4732 46.617 15.3776C47.0268 15.282 47.4548 15.1294 47.9011 14.92V16.5319C47.5368 16.7141 47.1475 16.8484 46.7331 16.9349C46.3187 17.026 45.8133 17.0715 45.2168 17.0715Z" fill="#2F2E41"/>
<path d="M51.5258 16.9349H49.4425V6.30682H51.5258V16.9349Z" fill="#2F2E41"/>
<path d="M52.0426 9.29854H54.324L55.7652 13.5949C55.8881 13.9683 55.9724 14.41 56.0179 14.92H56.0589C56.109 14.4509 56.2069 14.0092 56.3526 13.5949L57.7665 9.29854H60L56.7692 17.9117C56.4733 18.7086 56.0498 19.3051 55.4988 19.7013C54.9524 20.0974 54.3126 20.2955 53.5794 20.2955C53.2197 20.2955 52.8668 20.2568 52.5207 20.1794V18.5264C52.7712 18.5856 53.0444 18.6152 53.3404 18.6152C53.7092 18.6152 54.0303 18.5014 54.3035 18.2737C54.5812 18.0506 54.7975 17.7113 54.9524 17.256L55.0753 16.8803L52.0426 9.29854Z" fill="#2F2E41"/>
<path d="M8.38624 1.5692C7.48034 1.56943 6.61162 1.88595 5.97104 2.44917C5.33048 3.01239 4.9705 3.77622 4.97023 4.57274V5.93719H3.4184C2.96948 5.93686 2.52488 6.01437 2.11006 6.16528C1.69524 6.31618 1.31833 6.53754 1.00091 6.81666C0.683476 7.09576 0.431756 7.42718 0.260147 7.79191C0.0885383 8.15666 0.000408968 8.54758 0.000801443 8.9423V11.9448H4.96943V14.6737H3.4176C2.51144 14.6736 1.64234 14.99 1.00144 15.5532C0.360538 16.1165 0.000316538 16.8804 0 17.6772V22.8663H3.4192C3.8677 22.8661 4.31175 22.7883 4.72603 22.6371C5.14029 22.486 5.51663 22.2646 5.8336 21.9857C6.15055 21.7067 6.40189 21.3755 6.57328 21.011C6.74465 20.6465 6.83271 20.2561 6.83242 19.8618H6.83679V17.8794L6.82765 17.8804V5.25059L6.83521 5.25216V4.57326C6.83599 4.21126 6.99961 3.86422 7.29035 3.6079C7.58107 3.35158 7.97532 3.2068 8.38704 3.20513H14.3216V4.57326C14.3203 4.9351 14.1561 5.28177 13.865 5.53746C13.5738 5.79315 13.1793 5.93707 12.7678 5.93771H7.53752V7.5754H12.767C13.6729 7.57545 14.5417 7.25909 15.1823 6.69592C15.8229 6.13274 16.1829 5.3689 16.183 4.57239V1.56885L8.38624 1.5692ZM4.97023 10.3069H1.86538V8.94246C1.86606 8.58004 2.02987 8.23259 2.32103 7.97603C2.61218 7.71948 3.007 7.57468 3.4192 7.5733H4.97103L4.97023 10.3069ZM4.97023 19.8633C4.96955 20.2251 4.80588 20.572 4.51505 20.8279C4.22422 21.0839 3.8299 21.2282 3.4184 21.2291H1.86458V17.6781C1.86495 17.316 2.02885 16.9689 2.32021 16.713C2.6116 16.4572 3.00659 16.3135 3.4184 16.3136H4.97023V19.8633ZM7.53752 11.9446H11.4569V13.3105C11.4554 13.6722 11.2911 14.0188 11 14.2744C10.7088 14.5301 10.3145 14.674 9.90305 14.6749H7.53752V16.3136H9.90385C10.3525 16.3139 10.7968 16.2363 11.2114 16.0854C11.6259 15.9346 12.0026 15.7133 12.3198 15.4344C12.6371 15.1554 12.8887 14.8242 13.0603 14.4598C13.2319 14.0953 13.3201 13.7046 13.3199 13.3101H13.3214V10.3066H7.53752V11.9446Z" fill="#6C63FF"/>
<path d="M1095.99 13.686C1095.36 13.686 1094.77 13.5767 1094.23 13.3579C1093.69 13.1392 1093.23 12.8325 1092.83 12.438C1092.43 12.0435 1092.13 11.5786 1091.91 11.0435C1091.69 10.5044 1091.59 9.91846 1091.59 9.28564C1091.59 8.64893 1091.7 8.06299 1091.91 7.52783C1092.13 6.98877 1092.44 6.52197 1092.83 6.12744C1093.23 5.73291 1093.7 5.42627 1094.23 5.20752C1094.77 4.98877 1095.36 4.87939 1095.99 4.87939C1096.61 4.87939 1097.18 4.99072 1097.71 5.21338C1098.24 5.43213 1098.71 5.74072 1099.12 6.13916C1099.52 6.53369 1099.83 6.99854 1100.06 7.53369C1100.29 8.06885 1100.4 8.65283 1100.4 9.28564C1100.4 9.91846 1100.29 10.5044 1100.07 11.0435C1099.85 11.5786 1099.54 12.0435 1099.14 12.438C1098.75 12.8325 1098.28 13.1392 1097.74 13.3579C1097.21 13.5767 1096.62 13.686 1095.99 13.686ZM1096.18 11.9634C1095.39 11.9634 1094.8 11.7212 1094.4 11.2368C1094 10.7485 1093.8 10.0981 1093.8 9.28564C1093.8 8.76611 1093.89 8.30713 1094.08 7.90869C1094.27 7.50635 1094.55 7.19189 1094.91 6.96533C1095.27 6.73486 1095.71 6.61963 1096.23 6.61963C1096.48 6.61963 1096.74 6.65088 1096.99 6.71338C1097.25 6.77588 1097.49 6.86377 1097.71 6.97705L1097.38 7.65674C1097.19 7.55518 1096.99 7.479 1096.8 7.42822C1096.61 7.37354 1096.42 7.34619 1096.24 7.34619C1095.74 7.34619 1095.36 7.52002 1095.08 7.86768C1094.81 8.21143 1094.67 8.68408 1094.67 9.28564C1094.67 9.91064 1094.8 10.3911 1095.04 10.7271C1095.29 11.063 1095.69 11.231 1096.22 11.231C1096.42 11.231 1096.62 11.2056 1096.85 11.1548C1097.07 11.104 1097.29 11.0376 1097.49 10.9556V11.6704C1097.3 11.7563 1097.1 11.8267 1096.9 11.8813C1096.7 11.936 1096.46 11.9634 1096.18 11.9634ZM1095.99 13.0884C1096.51 13.0884 1097 12.9946 1097.45 12.8071C1097.91 12.6196 1098.31 12.356 1098.65 12.0161C1099 11.6724 1099.27 11.27 1099.46 10.8091C1099.66 10.3442 1099.75 9.83643 1099.75 9.28564C1099.75 8.76221 1099.66 8.27197 1099.47 7.81494C1099.29 7.35791 1099.03 6.95361 1098.69 6.60205C1098.36 6.25049 1097.96 5.97705 1097.5 5.78174C1097.04 5.58252 1096.54 5.48291 1095.99 5.48291C1095.45 5.48291 1094.94 5.57666 1094.48 5.76416C1094.02 5.95166 1093.62 6.21729 1093.29 6.56104C1092.95 6.90088 1092.69 7.30322 1092.5 7.76807C1092.32 8.229 1092.22 8.73486 1092.22 9.28564C1092.22 9.80908 1092.32 10.3013 1092.5 10.7622C1092.68 11.2192 1092.94 11.6235 1093.28 11.9751C1093.62 12.3228 1094.02 12.5962 1094.47 12.7954C1094.94 12.9907 1095.44 13.0884 1095.99 13.0884ZM1106.27 13.5688H1105.27V5.00244H1110.04V5.88135H1106.27V9.02197H1109.81V9.89502H1106.27V13.5688ZM1116.63 7.14697V13.5688H1115.83L1115.69 12.6665H1115.64C1115.51 12.8892 1115.33 13.0767 1115.12 13.229C1114.91 13.3813 1114.67 13.4946 1114.41 13.5688C1114.15 13.647 1113.87 13.686 1113.57 13.686C1113.06 13.686 1112.64 13.604 1112.29 13.4399C1111.95 13.2759 1111.69 13.022 1111.51 12.6782C1111.34 12.3345 1111.26 11.8931 1111.26 11.354V7.14697H1112.24V11.2837C1112.24 11.8188 1112.36 12.2192 1112.6 12.4849C1112.85 12.7466 1113.21 12.8774 1113.71 12.8774C1114.19 12.8774 1114.57 12.7876 1114.85 12.6079C1115.13 12.4282 1115.34 12.1646 1115.46 11.8169C1115.59 11.4653 1115.65 11.0356 1115.65 10.5278V7.14697H1116.63ZM1122.84 11.811C1122.84 12.2212 1122.74 12.5669 1122.53 12.8481C1122.33 13.1255 1122.03 13.3345 1121.65 13.4751C1121.27 13.6157 1120.82 13.686 1120.29 13.686C1119.84 13.686 1119.45 13.6509 1119.12 13.5806C1118.8 13.5103 1118.51 13.4106 1118.26 13.2817V12.3853C1118.53 12.5142 1118.84 12.6313 1119.2 12.7368C1119.56 12.8423 1119.94 12.895 1120.31 12.895C1120.87 12.895 1121.27 12.8052 1121.52 12.6255C1121.77 12.4458 1121.9 12.2017 1121.9 11.8931C1121.9 11.7173 1121.85 11.563 1121.74 11.4302C1121.65 11.2935 1121.48 11.1626 1121.25 11.0376C1121.01 10.9087 1120.69 10.7681 1120.27 10.6157C1119.86 10.4595 1119.51 10.3052 1119.21 10.1528C1118.91 9.99658 1118.68 9.80713 1118.52 9.58447C1118.36 9.36182 1118.28 9.07275 1118.28 8.71729C1118.28 8.17432 1118.49 7.7583 1118.93 7.46924C1119.37 7.17627 1119.95 7.02979 1120.67 7.02979C1121.05 7.02979 1121.41 7.06885 1121.75 7.14697C1122.09 7.22119 1122.41 7.32275 1122.7 7.45166L1122.37 8.23096C1122.11 8.11768 1121.82 8.02197 1121.52 7.94385C1121.22 7.86572 1120.91 7.82666 1120.6 7.82666C1120.15 7.82666 1119.81 7.90088 1119.56 8.04932C1119.33 8.19775 1119.21 8.40088 1119.21 8.65869C1119.21 8.85791 1119.26 9.02197 1119.37 9.15088C1119.48 9.27979 1119.66 9.40088 1119.91 9.51416C1120.16 9.62744 1120.48 9.76025 1120.88 9.9126C1121.29 10.061 1121.63 10.2153 1121.93 10.3755C1122.22 10.5317 1122.44 10.7231 1122.6 10.9497C1122.76 11.1724 1122.84 11.4595 1122.84 11.811ZM1126.88 7.02979C1127.42 7.02979 1127.89 7.15088 1128.28 7.39307C1128.67 7.63525 1128.97 7.9751 1129.18 8.4126C1129.39 8.84619 1129.49 9.354 1129.49 9.93604V10.5396H1125.05C1125.07 11.2935 1125.25 11.8677 1125.62 12.2622C1125.98 12.6567 1126.49 12.854 1127.15 12.854C1127.56 12.854 1127.92 12.8169 1128.23 12.7427C1128.54 12.6685 1128.87 12.5591 1129.2 12.4146V13.27C1128.88 13.4146 1128.56 13.52 1128.24 13.5864C1127.92 13.6528 1127.54 13.686 1127.11 13.686C1126.49 13.686 1125.96 13.561 1125.49 13.311C1125.04 13.0571 1124.68 12.686 1124.43 12.1978C1124.17 11.7095 1124.05 11.1118 1124.05 10.4048C1124.05 9.71338 1124.16 9.11572 1124.39 8.61182C1124.63 8.104 1124.96 7.71338 1125.38 7.43994C1125.8 7.1665 1126.3 7.02979 1126.88 7.02979ZM1126.87 7.82666C1126.35 7.82666 1125.93 7.99658 1125.62 8.33643C1125.31 8.67627 1125.13 9.15088 1125.07 9.76025H1128.47C1128.47 9.37744 1128.41 9.0415 1128.29 8.75244C1128.18 8.45947 1128 8.23291 1127.77 8.07275C1127.53 7.90869 1127.23 7.82666 1126.87 7.82666ZM1132.12 13.5688H1131.14V4.45166H1132.12V13.5688ZM1133.16 7.14697H1134.21L1135.62 10.8735C1135.71 11.0923 1135.78 11.3032 1135.85 11.5063C1135.92 11.7056 1135.99 11.897 1136.04 12.0806C1136.1 12.2642 1136.14 12.4419 1136.17 12.6138H1136.21C1136.27 12.4185 1136.34 12.1626 1136.45 11.8462C1136.55 11.5259 1136.66 11.1997 1136.77 10.8677L1138.12 7.14697H1139.16L1136.37 14.5122C1136.22 14.9067 1136.05 15.2505 1135.85 15.5435C1135.65 15.8364 1135.41 16.061 1135.13 16.2173C1134.85 16.3774 1134.51 16.4575 1134.11 16.4575C1133.93 16.4575 1133.77 16.4458 1133.63 16.4224C1133.49 16.4028 1133.37 16.3794 1133.26 16.3521V15.5728C1133.35 15.5923 1133.45 15.6099 1133.57 15.6255C1133.7 15.6411 1133.83 15.6489 1133.96 15.6489C1134.2 15.6489 1134.41 15.6021 1134.59 15.5083C1134.77 15.4185 1134.92 15.2856 1135.05 15.1099C1135.18 14.9341 1135.29 14.7251 1135.38 14.4829L1135.74 13.5806L1133.16 7.14697ZM1148.49 13.5688H1142.87V12.7544L1145.16 10.4282C1145.59 9.99854 1145.95 9.61572 1146.24 9.27979C1146.53 8.94385 1146.75 8.61377 1146.9 8.28955C1147.06 7.96143 1147.13 7.60205 1147.13 7.21143C1147.13 6.72705 1146.99 6.35791 1146.7 6.104C1146.41 5.84619 1146.04 5.71729 1145.57 5.71729C1145.16 5.71729 1144.79 5.7876 1144.48 5.92822C1144.16 6.06885 1143.84 6.26807 1143.51 6.52588L1142.98 5.86963C1143.21 5.67822 1143.46 5.5083 1143.72 5.35986C1143.99 5.21143 1144.28 5.09424 1144.58 5.0083C1144.89 4.92236 1145.22 4.87939 1145.57 4.87939C1146.1 4.87939 1146.55 4.97119 1146.93 5.15479C1147.32 5.33838 1147.61 5.6001 1147.82 5.93994C1148.03 6.27979 1148.13 6.68408 1148.13 7.15283C1148.13 7.60596 1148.04 8.02783 1147.87 8.41846C1147.69 8.80518 1147.43 9.18994 1147.11 9.57275C1146.79 9.95166 1146.41 10.354 1145.97 10.7798L1144.11 12.6372V12.6782H1148.49V13.5688ZM1155.4 9.27393C1155.4 9.96924 1155.35 10.5903 1155.24 11.1372C1155.14 11.6841 1154.97 12.147 1154.74 12.5259C1154.52 12.9048 1154.22 13.1938 1153.87 13.3931C1153.51 13.5884 1153.07 13.686 1152.57 13.686C1151.93 13.686 1151.41 13.5122 1150.99 13.1646C1150.57 12.8169 1150.26 12.3149 1150.06 11.6587C1149.85 10.9985 1149.75 10.2036 1149.75 9.27393C1149.75 8.35986 1149.84 7.57471 1150.03 6.91846C1150.21 6.2583 1150.52 5.75244 1150.93 5.40088C1151.34 5.04541 1151.89 4.86768 1152.57 4.86768C1153.21 4.86768 1153.75 5.04346 1154.16 5.39502C1154.58 5.74268 1154.89 6.24658 1155.1 6.90674C1155.3 7.56299 1155.4 8.35205 1155.4 9.27393ZM1150.73 9.27393C1150.73 10.0708 1150.79 10.7349 1150.91 11.2661C1151.03 11.7974 1151.23 12.1958 1151.5 12.4614C1151.77 12.7231 1152.13 12.854 1152.57 12.854C1153.01 12.854 1153.37 12.7231 1153.64 12.4614C1153.91 12.1997 1154.11 11.8032 1154.23 11.272C1154.35 10.7407 1154.42 10.0747 1154.42 9.27393C1154.42 8.48877 1154.36 7.83252 1154.23 7.30518C1154.11 6.77393 1153.92 6.37549 1153.65 6.10986C1153.38 5.84033 1153.02 5.70557 1152.57 5.70557C1152.12 5.70557 1151.76 5.84033 1151.49 6.10986C1151.22 6.37549 1151.03 6.77393 1150.91 7.30518C1150.79 7.83252 1150.73 8.48877 1150.73 9.27393ZM1162.22 13.5688H1156.61V12.7544L1158.9 10.4282C1159.32 9.99854 1159.68 9.61572 1159.97 9.27979C1160.26 8.94385 1160.49 8.61377 1160.64 8.28955C1160.79 7.96143 1160.87 7.60205 1160.87 7.21143C1160.87 6.72705 1160.72 6.35791 1160.43 6.104C1160.15 5.84619 1159.77 5.71729 1159.3 5.71729C1158.89 5.71729 1158.53 5.7876 1158.21 5.92822C1157.9 6.06885 1157.57 6.26807 1157.24 6.52588L1156.72 5.86963C1156.95 5.67822 1157.19 5.5083 1157.46 5.35986C1157.73 5.21143 1158.01 5.09424 1158.32 5.0083C1158.63 4.92236 1158.96 4.87939 1159.3 4.87939C1159.83 4.87939 1160.29 4.97119 1160.67 5.15479C1161.05 5.33838 1161.35 5.6001 1161.55 5.93994C1161.76 6.27979 1161.87 6.68408 1161.87 7.15283C1161.87 7.60596 1161.78 8.02783 1161.6 8.41846C1161.42 8.80518 1161.17 9.18994 1160.84 9.57275C1160.52 9.95166 1160.14 10.354 1159.71 10.7798L1157.84 12.6372V12.6782H1162.22V13.5688ZM1167.1 13.5688H1166.15V7.49854C1166.15 7.26807 1166.15 7.0708 1166.15 6.90674C1166.15 6.73877 1166.15 6.58643 1166.16 6.44971C1166.17 6.30908 1166.18 6.1665 1166.19 6.02197C1166.07 6.14697 1165.95 6.25439 1165.85 6.34424C1165.74 6.43018 1165.61 6.5376 1165.46 6.6665L1164.48 7.45166L1163.97 6.78955L1166.29 5.00244H1167.1V13.5688ZM1170.63 12.9595C1170.63 12.686 1170.7 12.4927 1170.83 12.3794C1170.96 12.2622 1171.12 12.2036 1171.31 12.2036C1171.51 12.2036 1171.68 12.2622 1171.82 12.3794C1171.96 12.4927 1172.02 12.686 1172.02 12.9595C1172.02 13.229 1171.96 13.4263 1171.82 13.5513C1171.68 13.6724 1171.51 13.7329 1171.31 13.7329C1171.12 13.7329 1170.96 13.6724 1170.83 13.5513C1170.7 13.4263 1170.63 13.229 1170.63 12.9595ZM1182.56 13.5688L1181.51 10.8501H1178.08L1177.03 13.5688H1176.02L1179.37 4.96729H1180.27L1183.6 13.5688H1182.56ZM1181.21 9.96533L1180.21 7.26416C1180.19 7.19385 1180.15 7.07861 1180.09 6.91846C1180.04 6.7583 1179.99 6.59229 1179.93 6.42041C1179.88 6.24854 1179.83 6.10986 1179.8 6.00439C1179.76 6.16455 1179.72 6.32471 1179.67 6.48486C1179.63 6.64111 1179.58 6.7876 1179.54 6.92432C1179.5 7.05713 1179.46 7.17041 1179.43 7.26416L1178.41 9.96533H1181.21ZM1185.62 13.5688H1184.64V4.45166H1185.62V13.5688ZM1188.65 13.5688H1187.67V4.45166H1188.65V13.5688ZM1196.74 7.02979C1196.87 7.02979 1197.01 7.0376 1197.15 7.05322C1197.29 7.06494 1197.41 7.08252 1197.52 7.10596L1197.4 8.0083C1197.29 7.98096 1197.18 7.95947 1197.05 7.94385C1196.92 7.92822 1196.8 7.92041 1196.69 7.92041C1196.43 7.92041 1196.18 7.97314 1195.95 8.07861C1195.73 8.18018 1195.53 8.32861 1195.36 8.52393C1195.18 8.71533 1195.05 8.94775 1194.95 9.22119C1194.85 9.49072 1194.8 9.7915 1194.8 10.1235V13.5688H1193.83V7.14697H1194.63L1194.74 8.33057H1194.78C1194.91 8.09229 1195.07 7.87549 1195.26 7.68018C1195.45 7.48096 1195.67 7.32275 1195.91 7.20557C1196.16 7.08838 1196.44 7.02979 1196.74 7.02979ZM1199.71 7.14697V13.5688H1198.74V7.14697H1199.71ZM1199.23 4.74463C1199.39 4.74463 1199.53 4.79736 1199.64 4.90283C1199.76 5.00439 1199.82 5.16455 1199.82 5.3833C1199.82 5.59814 1199.76 5.7583 1199.64 5.86377C1199.53 5.96924 1199.39 6.02197 1199.23 6.02197C1199.07 6.02197 1198.93 5.96924 1198.81 5.86377C1198.7 5.7583 1198.65 5.59814 1198.65 5.3833C1198.65 5.16455 1198.7 5.00439 1198.81 4.90283C1198.93 4.79736 1199.07 4.74463 1199.23 4.74463ZM1203.56 16.4517C1202.72 16.4517 1202.07 16.2935 1201.61 15.9771C1201.16 15.6646 1200.93 15.2251 1200.93 14.6587C1200.93 14.2563 1201.05 13.9126 1201.31 13.6274C1201.57 13.3423 1201.92 13.1528 1202.38 13.0591C1202.21 12.981 1202.06 12.8638 1201.94 12.7075C1201.82 12.5513 1201.77 12.3716 1201.77 12.1685C1201.77 11.9341 1201.83 11.729 1201.96 11.5532C1202.09 11.3735 1202.29 11.2017 1202.56 11.0376C1202.23 10.9009 1201.95 10.6704 1201.74 10.3462C1201.54 10.0181 1201.43 9.63721 1201.43 9.20361C1201.43 8.74268 1201.53 8.3501 1201.72 8.02588C1201.91 7.69775 1202.19 7.44775 1202.55 7.27588C1202.91 7.104 1203.35 7.01807 1203.87 7.01807C1203.98 7.01807 1204.1 7.02393 1204.21 7.03564C1204.33 7.04346 1204.44 7.05713 1204.54 7.07666C1204.65 7.09229 1204.74 7.11182 1204.82 7.13525H1207.02V7.76221L1205.84 7.90869C1205.96 8.06104 1206.05 8.24463 1206.13 8.45947C1206.21 8.67432 1206.25 8.9126 1206.25 9.17432C1206.25 9.81494 1206.03 10.3247 1205.6 10.7036C1205.16 11.0786 1204.57 11.2661 1203.81 11.2661C1203.63 11.2661 1203.45 11.2505 1203.26 11.2192C1203.07 11.3247 1202.92 11.4419 1202.82 11.5708C1202.72 11.6997 1202.67 11.8481 1202.67 12.0161C1202.67 12.1411 1202.71 12.2407 1202.79 12.3149C1202.86 12.3892 1202.97 12.4438 1203.12 12.479C1203.26 12.5103 1203.44 12.5259 1203.64 12.5259H1204.77C1205.47 12.5259 1206.01 12.6724 1206.38 12.9653C1206.75 13.2583 1206.94 13.686 1206.94 14.2485C1206.94 14.9595 1206.65 15.5044 1206.07 15.8833C1205.49 16.2622 1204.66 16.4517 1203.56 16.4517ZM1203.59 15.6899C1204.12 15.6899 1204.56 15.6353 1204.91 15.5259C1205.26 15.4204 1205.53 15.2661 1205.7 15.063C1205.87 14.8638 1205.96 14.6255 1205.96 14.3481C1205.96 14.0903 1205.9 13.895 1205.79 13.7622C1205.67 13.6333 1205.5 13.5474 1205.27 13.5044C1205.04 13.4575 1204.77 13.4341 1204.44 13.4341H1203.32C1203.04 13.4341 1202.78 13.479 1202.57 13.5688C1202.35 13.6587 1202.19 13.7915 1202.07 13.9673C1201.96 14.1431 1201.9 14.3618 1201.9 14.6235C1201.9 14.9712 1202.05 15.2349 1202.34 15.4146C1202.63 15.5981 1203.05 15.6899 1203.59 15.6899ZM1203.85 10.5571C1204.31 10.5571 1204.66 10.4399 1204.89 10.2056C1205.13 9.97119 1205.25 9.62939 1205.25 9.18018C1205.25 8.69971 1205.13 8.34033 1204.89 8.10205C1204.65 7.85986 1204.3 7.73877 1203.83 7.73877C1203.39 7.73877 1203.04 7.86377 1202.8 8.11377C1202.56 8.35986 1202.45 8.72119 1202.45 9.19775C1202.45 9.63525 1202.57 9.97119 1202.81 10.2056C1203.05 10.4399 1203.4 10.5571 1203.85 10.5571ZM1209.26 4.45166V7.17627C1209.26 7.33252 1209.26 7.49072 1209.25 7.65088C1209.24 7.80713 1209.23 7.95166 1209.21 8.08447H1209.27C1209.4 7.85791 1209.57 7.66846 1209.78 7.51611C1209.98 7.35986 1210.22 7.24268 1210.48 7.16455C1210.74 7.08252 1211.02 7.0415 1211.31 7.0415C1211.83 7.0415 1212.26 7.12354 1212.6 7.2876C1212.95 7.45166 1213.21 7.70557 1213.38 8.04932C1213.55 8.39307 1213.64 8.83838 1213.64 9.38525V13.5688H1212.68V9.44971C1212.68 8.91455 1212.56 8.51416 1212.31 8.24854C1212.07 7.98291 1211.7 7.8501 1211.19 7.8501C1210.72 7.8501 1210.34 7.94189 1210.05 8.12549C1209.77 8.30518 1209.57 8.5708 1209.44 8.92236C1209.32 9.27393 1209.26 9.70361 1209.26 10.2114V13.5688H1208.29V4.45166H1209.26ZM1217.72 12.8892C1217.88 12.8892 1218.04 12.8755 1218.21 12.8481C1218.38 12.8208 1218.52 12.7876 1218.62 12.7485V13.5044C1218.51 13.5552 1218.35 13.5981 1218.15 13.6333C1217.95 13.6685 1217.75 13.686 1217.56 13.686C1217.22 13.686 1216.91 13.6274 1216.64 13.5103C1216.36 13.3892 1216.14 13.186 1215.97 12.9009C1215.8 12.6157 1215.72 12.2212 1215.72 11.7173V7.90869H1214.81V7.43408L1215.73 7.05322L1216.12 5.65869H1216.7V7.14697H1218.58V7.90869H1216.7V11.688C1216.7 12.0903 1216.79 12.3911 1216.98 12.5903C1217.16 12.7896 1217.41 12.8892 1217.72 12.8892ZM1224.08 11.811C1224.08 12.2212 1223.97 12.5669 1223.77 12.8481C1223.56 13.1255 1223.27 13.3345 1222.89 13.4751C1222.51 13.6157 1222.06 13.686 1221.53 13.686C1221.08 13.686 1220.69 13.6509 1220.36 13.5806C1220.04 13.5103 1219.75 13.4106 1219.5 13.2817V12.3853C1219.76 12.5142 1220.08 12.6313 1220.44 12.7368C1220.8 12.8423 1221.17 12.895 1221.55 12.895C1222.11 12.895 1222.51 12.8052 1222.76 12.6255C1223.01 12.4458 1223.13 12.2017 1223.13 11.8931C1223.13 11.7173 1223.08 11.563 1222.98 11.4302C1222.88 11.2935 1222.72 11.1626 1222.48 11.0376C1222.25 10.9087 1221.93 10.7681 1221.51 10.6157C1221.1 10.4595 1220.75 10.3052 1220.45 10.1528C1220.15 9.99658 1219.92 9.80713 1219.75 9.58447C1219.59 9.36182 1219.51 9.07275 1219.51 8.71729C1219.51 8.17432 1219.73 7.7583 1220.17 7.46924C1220.61 7.17627 1221.19 7.02979 1221.9 7.02979C1222.29 7.02979 1222.65 7.06885 1222.99 7.14697C1223.33 7.22119 1223.64 7.32275 1223.94 7.45166L1223.61 8.23096C1223.34 8.11768 1223.06 8.02197 1222.76 7.94385C1222.46 7.86572 1222.15 7.82666 1221.84 7.82666C1221.39 7.82666 1221.04 7.90088 1220.8 8.04932C1220.56 8.19775 1220.45 8.40088 1220.45 8.65869C1220.45 8.85791 1220.5 9.02197 1220.61 9.15088C1220.72 9.27979 1220.9 9.40088 1221.15 9.51416C1221.39 9.62744 1221.72 9.76025 1222.12 9.9126C1222.52 10.061 1222.87 10.2153 1223.16 10.3755C1223.46 10.5317 1223.68 10.7231 1223.84 10.9497C1224 11.1724 1224.08 11.4595 1224.08 11.811ZM1231.68 7.02979C1231.81 7.02979 1231.94 7.0376 1232.08 7.05322C1232.22 7.06494 1232.35 7.08252 1232.46 7.10596L1232.33 8.0083C1232.23 7.98096 1232.11 7.95947 1231.98 7.94385C1231.85 7.92822 1231.73 7.92041 1231.62 7.92041C1231.36 7.92041 1231.12 7.97314 1230.89 8.07861C1230.66 8.18018 1230.46 8.32861 1230.29 8.52393C1230.12 8.71533 1229.98 8.94775 1229.88 9.22119C1229.79 9.49072 1229.74 9.7915 1229.74 10.1235V13.5688H1228.76V7.14697H1229.57L1229.67 8.33057H1229.71C1229.85 8.09229 1230.01 7.87549 1230.2 7.68018C1230.38 7.48096 1230.6 7.32275 1230.85 7.20557C1231.1 7.08838 1231.37 7.02979 1231.68 7.02979ZM1236.14 7.02979C1236.69 7.02979 1237.16 7.15088 1237.55 7.39307C1237.94 7.63525 1238.24 7.9751 1238.45 8.4126C1238.65 8.84619 1238.76 9.354 1238.76 9.93604V10.5396H1234.32C1234.33 11.2935 1234.52 11.8677 1234.88 12.2622C1235.25 12.6567 1235.76 12.854 1236.42 12.854C1236.82 12.854 1237.18 12.8169 1237.5 12.7427C1237.81 12.6685 1238.13 12.5591 1238.47 12.4146V13.27C1238.14 13.4146 1237.82 13.52 1237.5 13.5864C1237.19 13.6528 1236.81 13.686 1236.38 13.686C1235.76 13.686 1235.22 13.561 1234.76 13.311C1234.3 13.0571 1233.95 12.686 1233.69 12.1978C1233.44 11.7095 1233.31 11.1118 1233.31 10.4048C1233.31 9.71338 1233.43 9.11572 1233.66 8.61182C1233.89 8.104 1234.22 7.71338 1234.64 7.43994C1235.07 7.1665 1235.57 7.02979 1236.14 7.02979ZM1236.13 7.82666C1235.61 7.82666 1235.2 7.99658 1234.89 8.33643C1234.58 8.67627 1234.4 9.15088 1234.34 9.76025H1237.74C1237.73 9.37744 1237.67 9.0415 1237.55 8.75244C1237.44 8.45947 1237.27 8.23291 1237.03 8.07275C1236.8 7.90869 1236.5 7.82666 1236.13 7.82666ZM1244.56 11.811C1244.56 12.2212 1244.46 12.5669 1244.25 12.8481C1244.05 13.1255 1243.76 13.3345 1243.37 13.4751C1242.99 13.6157 1242.54 13.686 1242.01 13.686C1241.56 13.686 1241.18 13.6509 1240.85 13.5806C1240.52 13.5103 1240.23 13.4106 1239.99 13.2817V12.3853C1240.25 12.5142 1240.56 12.6313 1240.92 12.7368C1241.29 12.8423 1241.66 12.895 1242.04 12.895C1242.59 12.895 1242.99 12.8052 1243.24 12.6255C1243.49 12.4458 1243.62 12.2017 1243.62 11.8931C1243.62 11.7173 1243.57 11.563 1243.47 11.4302C1243.37 11.2935 1243.2 11.1626 1242.97 11.0376C1242.73 10.9087 1242.41 10.7681 1242 10.6157C1241.59 10.4595 1241.23 10.3052 1240.93 10.1528C1240.63 9.99658 1240.4 9.80713 1240.24 9.58447C1240.08 9.36182 1240 9.07275 1240 8.71729C1240 8.17432 1240.22 7.7583 1240.65 7.46924C1241.1 7.17627 1241.67 7.02979 1242.39 7.02979C1242.78 7.02979 1243.14 7.06885 1243.47 7.14697C1243.81 7.22119 1244.13 7.32275 1244.42 7.45166L1244.09 8.23096C1243.83 8.11768 1243.54 8.02197 1243.24 7.94385C1242.94 7.86572 1242.64 7.82666 1242.32 7.82666C1241.88 7.82666 1241.53 7.90088 1241.29 8.04932C1241.05 8.19775 1240.93 8.40088 1240.93 8.65869C1240.93 8.85791 1240.98 9.02197 1241.09 9.15088C1241.21 9.27979 1241.39 9.40088 1241.63 9.51416C1241.88 9.62744 1242.2 9.76025 1242.61 9.9126C1243.01 10.061 1243.36 10.2153 1243.65 10.3755C1243.94 10.5317 1244.17 10.7231 1244.32 10.9497C1244.48 11.1724 1244.56 11.4595 1244.56 11.811ZM1248.6 7.02979C1249.15 7.02979 1249.62 7.15088 1250.01 7.39307C1250.4 7.63525 1250.7 7.9751 1250.9 8.4126C1251.11 8.84619 1251.21 9.354 1251.21 9.93604V10.5396H1246.78C1246.79 11.2935 1246.98 11.8677 1247.34 12.2622C1247.7 12.6567 1248.21 12.854 1248.88 12.854C1249.28 12.854 1249.64 12.8169 1249.95 12.7427C1250.27 12.6685 1250.59 12.5591 1250.93 12.4146V13.27C1250.6 13.4146 1250.28 13.52 1249.96 13.5864C1249.64 13.6528 1249.27 13.686 1248.83 13.686C1248.22 13.686 1247.68 13.561 1247.22 13.311C1246.76 13.0571 1246.4 12.686 1246.15 12.1978C1245.9 11.7095 1245.77 11.1118 1245.77 10.4048C1245.77 9.71338 1245.88 9.11572 1246.12 8.61182C1246.35 8.104 1246.68 7.71338 1247.1 7.43994C1247.53 7.1665 1248.03 7.02979 1248.6 7.02979ZM1248.59 7.82666C1248.07 7.82666 1247.65 7.99658 1247.35 8.33643C1247.04 8.67627 1246.85 9.15088 1246.79 9.76025H1250.19C1250.19 9.37744 1250.13 9.0415 1250.01 8.75244C1249.9 8.45947 1249.72 8.23291 1249.49 8.07275C1249.26 7.90869 1248.96 7.82666 1248.59 7.82666ZM1255.78 7.02979C1255.91 7.02979 1256.05 7.0376 1256.19 7.05322C1256.33 7.06494 1256.45 7.08252 1256.56 7.10596L1256.44 8.0083C1256.33 7.98096 1256.22 7.95947 1256.09 7.94385C1255.96 7.92822 1255.84 7.92041 1255.72 7.92041C1255.47 7.92041 1255.22 7.97314 1254.99 8.07861C1254.77 8.18018 1254.57 8.32861 1254.39 8.52393C1254.22 8.71533 1254.09 8.94775 1253.99 9.22119C1253.89 9.49072 1253.84 9.7915 1253.84 10.1235V13.5688H1252.87V7.14697H1253.67L1253.78 8.33057H1253.82C1253.95 8.09229 1254.11 7.87549 1254.3 7.68018C1254.49 7.48096 1254.71 7.32275 1254.95 7.20557C1255.2 7.08838 1255.48 7.02979 1255.78 7.02979ZM1259.19 13.5688L1256.75 7.14697H1257.79L1259.21 11.0317C1259.3 11.2974 1259.4 11.5903 1259.5 11.9106C1259.61 12.231 1259.68 12.4888 1259.71 12.6841H1259.76C1259.8 12.4888 1259.88 12.231 1259.99 11.9106C1260.1 11.5864 1260.2 11.2935 1260.29 11.0317L1261.7 7.14697H1262.74L1260.3 13.5688H1259.19ZM1266.25 7.02979C1266.79 7.02979 1267.26 7.15088 1267.65 7.39307C1268.04 7.63525 1268.34 7.9751 1268.55 8.4126C1268.76 8.84619 1268.86 9.354 1268.86 9.93604V10.5396H1264.43C1264.44 11.2935 1264.62 11.8677 1264.99 12.2622C1265.35 12.6567 1265.86 12.854 1266.52 12.854C1266.93 12.854 1267.29 12.8169 1267.6 12.7427C1267.91 12.6685 1268.24 12.5591 1268.57 12.4146V13.27C1268.25 13.4146 1267.93 13.52 1267.61 13.5864C1267.29 13.6528 1266.92 13.686 1266.48 13.686C1265.87 13.686 1265.33 13.561 1264.87 13.311C1264.41 13.0571 1264.05 12.686 1263.8 12.1978C1263.54 11.7095 1263.42 11.1118 1263.42 10.4048C1263.42 9.71338 1263.53 9.11572 1263.76 8.61182C1264 8.104 1264.33 7.71338 1264.75 7.43994C1265.17 7.1665 1265.67 7.02979 1266.25 7.02979ZM1266.24 7.82666C1265.72 7.82666 1265.3 7.99658 1264.99 8.33643C1264.69 8.67627 1264.5 9.15088 1264.44 9.76025H1267.84C1267.84 9.37744 1267.78 9.0415 1267.66 8.75244C1267.55 8.45947 1267.37 8.23291 1267.14 8.07275C1266.9 7.90869 1266.6 7.82666 1266.24 7.82666ZM1272.8 13.686C1271.99 13.686 1271.34 13.4087 1270.87 12.854C1270.39 12.2993 1270.16 11.4751 1270.16 10.3813C1270.16 9.27588 1270.4 8.44189 1270.88 7.87939C1271.37 7.31299 1272.01 7.02979 1272.82 7.02979C1273.16 7.02979 1273.45 7.07471 1273.71 7.16455C1273.96 7.25439 1274.18 7.37549 1274.36 7.52783C1274.55 7.67627 1274.7 7.84619 1274.83 8.0376H1274.9C1274.88 7.9165 1274.87 7.75049 1274.85 7.53955C1274.83 7.32861 1274.83 7.15674 1274.83 7.02393V4.45166H1275.8V13.5688H1275.01L1274.87 12.6548H1274.83C1274.71 12.8462 1274.55 13.02 1274.36 13.1763C1274.18 13.3325 1273.96 13.4575 1273.7 13.5513C1273.45 13.6411 1273.15 13.686 1272.8 13.686ZM1272.95 12.8774C1273.64 12.8774 1274.12 12.6821 1274.41 12.2915C1274.7 11.9009 1274.84 11.3208 1274.84 10.5513V10.3755C1274.84 9.55908 1274.7 8.93213 1274.43 8.49463C1274.16 8.05713 1273.67 7.83838 1272.95 7.83838C1272.35 7.83838 1271.91 8.06885 1271.61 8.52979C1271.31 8.98682 1271.16 9.61182 1271.16 10.4048C1271.16 11.1938 1271.31 11.8032 1271.6 12.2329C1271.9 12.6626 1272.35 12.8774 1272.95 12.8774ZM1277.71 12.9595C1277.71 12.686 1277.78 12.4927 1277.91 12.3794C1278.05 12.2622 1278.21 12.2036 1278.4 12.2036C1278.6 12.2036 1278.77 12.2622 1278.9 12.3794C1279.04 12.4927 1279.11 12.686 1279.11 12.9595C1279.11 13.229 1279.04 13.4263 1278.9 13.5513C1278.77 13.6724 1278.6 13.7329 1278.4 13.7329C1278.21 13.7329 1278.05 13.6724 1277.91 13.5513C1277.78 13.4263 1277.71 13.229 1277.71 12.9595Z" fill="#9893A3"/>
</svg>
